<svg xmlns="http://www.w3.org/2000/svg" xmlns:xlink="http://www.w3.org/1999/xlink" width="1080" zoomAndPan="magnify" viewBox="0 0 810 809.999993" height="1080" preserveAspectRatio="xMidYMid meet" version="1.0"><defs><filter x="0%" y="0%" width="100%" height="100%" id="07a58a07e0"><feColorMatrix values="0 0 0 0 1 0 0 0 0 1 0 0 0 0 1 0 0 0 1 0" color-interpolation-filters="sRGB"/></filter><g/><mask id="e4376e0305"><g filter="url(#07a58a07e0)"><rect x="-81" width="972" fill="#000000" y="-80.999999" height="971.999992" fill-opacity="0.4"/></g></mask><clipPath id="9f88a3a8d1"><path d="M 0.617188 1.113281 L 329.117188 1.113281 L 329.117188 329.613281 L 0.617188 329.613281 Z M 0.617188 1.113281 " clip-rule="nonzero"/></clipPath><clipPath id="1049c3296c"><rect x="0" width="330" y="0" height="330"/></clipPath></defs><rect x="-81" width="972" fill="#ffffff" y="-80.999999" height="971.999992" fill-opacity="1"/><rect x="-81" width="972" fill="#ffffff" y="-80.999999" height="971.999992" fill-opacity="1"/><rect x="-81" width="972" fill="#e73c5e" y="-80.999999" height="971.999992" fill-opacity="1"/><g mask="url(#e4376e0305)"><g transform="matrix(1, 0, 0, 1, 240, 373)"><g clip-path="url(#1049c3296c)"><g clip-path="url(#9f88a3a8d1)"><path fill="#ffffff" d="M 329.113281 165.363281 C 329.113281 256.074219 255.578125 329.609375 164.867188 329.609375 C 74.15625 329.609375 0.621094 256.074219 0.621094 165.363281 C 0.621094 74.65625 74.15625 1.121094 164.867188 1.121094 C 255.578125 1.121094 329.113281 74.65625 329.113281 165.363281 " fill-opacity="1" fill-rule="nonzero"/></g><path fill="#e73c5e" d="M 201.082031 107.445312 L 201.074219 109.054688 L 201.066406 109.734375 L 200.882812 138.296875 L 200.878906 139.363281 L 200.6875 168.78125 L 200.683594 169.363281 L 200.488281 199.3125 L 200.488281 199.363281 C 200.488281 199.601562 200.464844 199.839844 200.445312 200.074219 C 200.230469 203.636719 198.6875 206.859375 196.257812 209.339844 C 196.261719 209.339844 196.273438 209.347656 196.273438 209.347656 C 196.273438 209.347656 196.238281 209.375 196.171875 209.425781 C 195.246094 210.359375 194.203125 211.191406 193.046875 211.882812 C 166.460938 228.554688 160.652344 260.691406 160.652344 260.691406 C 160.613281 267.050781 154.730469 272.957031 147.15625 272.957031 C 146.371094 272.957031 145.566406 272.894531 144.75 272.761719 C 124.988281 269.535156 129.464844 238.621094 136.230469 214.019531 L 85.785156 213.695312 C 76.742188 213.636719 69.453125 206.816406 69.507812 198.46875 C 69.5625 190.152344 76.875 183.453125 85.863281 183.453125 C 85.902344 183.453125 85.941406 183.453125 85.980469 183.453125 L 90.644531 183.484375 C 81.777344 183.425781 74.632812 176.738281 74.683594 168.546875 L 74.6875 167.96875 C 74.742188 159.8125 81.910156 153.242188 90.726562 153.242188 C 90.765625 153.242188 90.804688 153.242188 90.839844 153.242188 L 94.675781 153.265625 C 85.953125 153.210938 78.921875 146.632812 78.976562 138.578125 L 78.984375 137.511719 C 79.035156 129.488281 86.085938 123.023438 94.761719 123.023438 C 94.796875 123.023438 94.835938 123.023438 94.871094 123.023438 L 104.21875 123.085938 C 95.863281 123.03125 89.125 116.730469 89.175781 109.011719 L 89.191406 106.722656 C 89.242188 99.035156 95.996094 92.84375 104.304688 92.84375 C 104.339844 92.84375 104.378906 92.84375 104.414062 92.84375 L 186.039062 93.371094 C 194.398438 93.425781 201.132812 99.726562 201.082031 107.445312 Z M 245.667969 97.046875 L 244.972656 204.746094 C 244.957031 207.460938 242.742188 209.648438 240.027344 209.628906 L 212.054688 209.449219 C 209.339844 209.429688 207.152344 207.21875 207.171875 204.503906 L 207.867188 96.804688 C 207.882812 94.089844 210.097656 91.902344 212.8125 91.921875 L 240.789062 92.101562 C 243.503906 92.121094 245.6875 94.332031 245.667969 97.046875 " fill-opacity="1" fill-rule="nonzero"/></g></g></g><g fill="#ffffff" fill-opacity="1"><g transform="translate(96.586841, 182.738975)"><g><path d="M 51.542969 -16.015625 C 47.425781 -11.902344 41.25 -9.664062 35.792969 -9.664062 C 20.3125 -9.664062 14.316406 -20.492188 14.226562 -30.871094 C 14.136719 -41.339844 20.671875 -52.617188 35.792969 -52.617188 C 41.25 -52.617188 46.800781 -50.738281 50.914062 -46.710938 L 58.789062 -54.316406 C 52.347656 -60.667969 44.292969 -63.890625 35.792969 -63.890625 C 13.152344 -63.890625 2.503906 -47.246094 2.59375 -30.871094 C 2.683594 -14.585938 12.527344 1.433594 35.792969 1.433594 C 44.832031 1.433594 53.152344 -1.519531 59.59375 -7.875 Z M 51.542969 -16.015625 "/></g></g></g><g fill="#ffffff" fill-opacity="1"><g transform="translate(155.638753, 182.738975)"><g><path d="M 47.335938 -18.164062 C 49.035156 -36.328125 39.820312 -45.457031 25.054688 -45.457031 C 10.738281 -45.457031 1.609375 -35.792969 1.609375 -22.371094 C 1.609375 -8.230469 10.648438 1.164062 25.859375 1.164062 C 32.570312 1.164062 40.175781 -1.164062 44.832031 -5.996094 L 37.851562 -12.886719 C 35.34375 -10.289062 30.066406 -8.769531 26.039062 -8.769531 C 18.34375 -8.769531 13.601562 -12.707031 12.886719 -18.164062 Z M 13.0625 -27.203125 C 14.675781 -32.929688 19.507812 -35.792969 25.414062 -35.792969 C 31.675781 -35.792969 36.152344 -32.929688 36.867188 -27.203125 Z M 13.0625 -27.203125 "/></g></g></g><g fill="#ffffff" fill-opacity="1"><g transform="translate(207.801276, 182.738975)"><g/></g></g><g fill="#ffffff" fill-opacity="1"><g transform="translate(225.874734, 182.738975)"><g><path d="M 24.875 -9.484375 C 17.449219 -9.484375 12.347656 -15.121094 12.347656 -22.011719 C 12.347656 -28.902344 17 -34.539062 24.875 -34.539062 C 32.75 -34.539062 37.402344 -28.902344 37.402344 -22.011719 C 37.402344 -15.121094 32.304688 -9.484375 24.875 -9.484375 Z M 49.304688 18.433594 L 49.304688 -44.113281 L 39.105469 -44.113281 L 38.386719 -38.03125 C 34.988281 -42.953125 29.082031 -45.097656 24.070312 -45.097656 C 10.46875 -45.097656 1.433594 -34.988281 1.433594 -22.011719 C 1.433594 -9.128906 9.574219 1.074219 23.710938 1.074219 C 28.367188 1.074219 35.257812 -0.359375 38.386719 -5.191406 L 38.386719 18.433594 Z M 49.304688 18.433594 "/></g></g></g><g fill="#ffffff" fill-opacity="1"><g transform="translate(281.168795, 182.738975)"><g><path d="M 3.847656 -44.113281 L 3.847656 -20.9375 C 3.847656 -7.25 11.542969 0.714844 22.101562 0.714844 C 28.277344 0.714844 32.480469 -1.433594 37.046875 -5.90625 L 37.761719 0.0898438 L 47.515625 0.0898438 L 47.515625 -44.113281 L 36.6875 -44.113281 L 36.6875 -21.566406 C 36.6875 -14.855469 32.125 -9.214844 25.414062 -9.214844 C 18.433594 -9.214844 14.765625 -14.316406 14.765625 -21.027344 L 14.765625 -44.113281 Z M 3.847656 -44.113281 "/></g></g></g><g fill="#ffffff" fill-opacity="1"><g transform="translate(334.762871, 182.738975)"><g><path d="M 14.496094 -44.292969 L 14.496094 0 L 3.578125 0 L 3.578125 -44.292969 Z M 2.59375 -56.554688 C 2.59375 -48.050781 15.480469 -48.050781 15.480469 -56.554688 C 15.480469 -65.054688 2.59375 -65.054688 2.59375 -56.554688 Z M 2.59375 -56.554688 "/></g></g></g><g fill="#ffffff" fill-opacity="1"><g transform="translate(355.520506, 182.738975)"><g/></g></g><g fill="#ffffff" fill-opacity="1"><g transform="translate(373.593954, 182.738975)"><g><path d="M 38.210938 -38.03125 C 35.703125 -42.414062 30.066406 -45.1875 24.160156 -45.1875 C 11.273438 -45.277344 1.164062 -37.3125 1.164062 -22.101562 C 1.164062 -6.621094 10.828125 1.433594 23.890625 1.34375 C 28.8125 1.253906 35.703125 -1.253906 38.210938 -6.441406 L 38.746094 0 L 49.035156 0 L 49.035156 -44.113281 L 38.566406 -44.113281 Z M 25.144531 -35.433594 C 42.324219 -35.433594 42.324219 -8.679688 25.144531 -8.679688 C 17.898438 -8.679688 12.082031 -13.691406 12.082031 -22.101562 C 12.082031 -30.511719 17.898438 -35.433594 25.144531 -35.433594 Z M 25.144531 -35.433594 "/></g></g></g><g fill="#ffffff" fill-opacity="1"><g transform="translate(428.261691, 182.738975)"><g/></g></g><g fill="#ffffff" fill-opacity="1"><g transform="translate(446.335161, 182.738975)"><g><path d="M 43.847656 0 L 43.847656 -23.625 C 43.847656 -29.441406 47.515625 -34.539062 53.421875 -34.539062 C 59.328125 -34.539062 61.742188 -29.617188 61.742188 -23.800781 L 61.742188 0 L 72.660156 0 L 72.660156 -23.800781 C 72.660156 -37.046875 66.484375 -44.742188 53.957031 -44.742188 C 48.230469 -44.742188 43.128906 -42.953125 39.191406 -36.6875 C 36.6875 -42.773438 31.410156 -44.921875 26.128906 -44.921875 C 21.921875 -44.921875 16.824219 -43.308594 14.496094 -38.835938 L 13.691406 -44.203125 L 3.578125 -44.203125 L 3.578125 0 L 14.496094 0 L 14.496094 -23.625 C 14.496094 -29.441406 17.984375 -34.71875 23.890625 -34.71875 C 29.886719 -34.71875 32.929688 -29.441406 32.929688 -23.625 L 32.929688 0 Z M 43.847656 0 "/></g></g></g><g fill="#ffffff" fill-opacity="1"><g transform="translate(526.502622, 182.738975)"><g><path d="M 24.339844 -45.007812 C 10.289062 -45.007812 1.519531 -34.628906 1.519531 -22.011719 C 1.519531 -9.304688 10.113281 0.984375 24.429688 0.984375 C 38.746094 0.984375 47.425781 -9.304688 47.425781 -22.011719 C 47.425781 -34.628906 38.386719 -45.007812 24.339844 -45.007812 Z M 24.429688 -35.078125 C 31.765625 -35.078125 36.417969 -28.632812 36.417969 -22.011719 C 36.417969 -15.300781 32.394531 -9.039062 24.429688 -9.039062 C 16.464844 -9.039062 12.4375 -15.300781 12.4375 -22.011719 C 12.4375 -28.632812 16.554688 -35.078125 24.429688 -35.078125 Z M 24.429688 -35.078125 "/></g></g></g><g fill="#ffffff" fill-opacity="1"><g transform="translate(577.859904, 182.738975)"><g><path d="M 14.496094 -44.292969 L 14.496094 0 L 3.578125 0 L 3.578125 -44.292969 Z M 2.59375 -56.554688 C 2.59375 -48.050781 15.480469 -48.050781 15.480469 -56.554688 C 15.480469 -65.054688 2.59375 -65.054688 2.59375 -56.554688 Z M 2.59375 -56.554688 "/></g></g></g><g fill="#ffffff" fill-opacity="1"><g transform="translate(598.617517, 182.738975)"><g><path d="M 46.976562 0 L 46.976562 -23.175781 C 46.976562 -37.046875 38.65625 -44.832031 28.277344 -44.832031 C 22.730469 -44.832031 18.253906 -42.59375 13.78125 -38.210938 L 13.0625 -44.203125 L 3.3125 -44.203125 L 3.3125 0 L 14.136719 0 L 14.136719 -22.550781 C 14.136719 -29.261719 18.703125 -34.898438 25.414062 -34.898438 C 32.394531 -34.898438 36.0625 -29.796875 36.0625 -23.085938 L 36.0625 0 Z M 46.976562 0 "/></g></g></g><g fill="#ffffff" fill-opacity="1"><g transform="translate(651.406364, 182.738975)"><g><path d="M 38.476562 -39.550781 C 33.378906 -44.023438 28.1875 -45.367188 21.296875 -45.367188 C 13.242188 -45.367188 2.683594 -41.789062 2.683594 -31.585938 C 2.683594 -21.566406 12.617188 -18.523438 20.9375 -17.898438 C 27.203125 -17.539062 29.707031 -16.285156 29.707031 -13.242188 C 29.707031 -10.023438 25.859375 -7.875 21.746094 -7.964844 C 16.824219 -8.054688 9.664062 -10.648438 6.53125 -14.136719 L 1.164062 -6.351562 C 7.605469 0.359375 14.585938 1.519531 21.566406 1.519531 C 34.183594 1.519531 40.535156 -5.191406 40.535156 -12.976562 C 40.535156 -24.695312 29.976562 -26.578125 21.65625 -27.113281 C 16.015625 -27.472656 13.421875 -29.082031 13.421875 -31.945312 C 13.421875 -34.71875 16.285156 -36.328125 21.476562 -36.328125 C 25.679688 -36.328125 29.261719 -35.34375 32.394531 -32.394531 Z M 38.476562 -39.550781 "/></g></g></g><g fill="#ffffff" fill-opacity="1"><g transform="translate(695.332909, 182.738975)"><g/></g></g><g fill="#ffffff" fill-opacity="1"><g transform="translate(80.930592, 281.73897)"><g><path d="M 28.007812 -34.988281 C 34.988281 -34.988281 40.535156 -30.066406 40.535156 -22.101562 C 40.535156 -14.40625 34.988281 -9.128906 28.007812 -9.128906 C 21.117188 -9.128906 15.210938 -14.136719 15.210938 -22.101562 C 15.210938 -29.796875 21.117188 -34.988281 28.007812 -34.988281 Z M 3.578125 -62.546875 L 3.578125 0 L 13.78125 0 L 14.496094 -6.085938 C 17.898438 -0.804688 23.355469 0.984375 28.722656 0.984375 C 41.699219 0.984375 51.453125 -7.605469 51.453125 -22.101562 C 51.453125 -37.3125 41.878906 -45.1875 28.992188 -45.1875 C 24.339844 -45.1875 17.089844 -42.683594 14.496094 -38.121094 L 14.496094 -62.546875 Z M 3.578125 -62.546875 "/></g></g></g><g fill="#ffffff" fill-opacity="1"><g transform="translate(136.850954, 281.73897)"><g><path d="M 14.496094 -44.292969 L 14.496094 0 L 3.578125 0 L 3.578125 -44.292969 Z M 2.59375 -56.554688 C 2.59375 -48.050781 15.480469 -48.050781 15.480469 -56.554688 C 15.480469 -65.054688 2.59375 -65.054688 2.59375 -56.554688 Z M 2.59375 -56.554688 "/></g></g></g><g fill="#ffffff" fill-opacity="1"><g transform="translate(157.60859, 281.73897)"><g><path d="M 47.335938 -18.164062 C 49.035156 -36.328125 39.820312 -45.457031 25.054688 -45.457031 C 10.738281 -45.457031 1.609375 -35.792969 1.609375 -22.371094 C 1.609375 -8.230469 10.648438 1.164062 25.859375 1.164062 C 32.570312 1.164062 40.175781 -1.164062 44.832031 -5.996094 L 37.851562 -12.886719 C 35.34375 -10.289062 30.066406 -8.769531 26.039062 -8.769531 C 18.34375 -8.769531 13.601562 -12.707031 12.886719 -18.164062 Z M 13.0625 -27.203125 C 14.675781 -32.929688 19.507812 -35.792969 25.414062 -35.792969 C 31.675781 -35.792969 36.152344 -32.929688 36.867188 -27.203125 Z M 13.0625 -27.203125 "/></g></g></g><g fill="#ffffff" fill-opacity="1"><g transform="translate(209.771113, 281.73897)"><g><path d="M 46.976562 0 L 46.976562 -23.175781 C 46.976562 -37.046875 38.65625 -44.832031 28.277344 -44.832031 C 22.730469 -44.832031 18.253906 -42.59375 13.78125 -38.210938 L 13.0625 -44.203125 L 3.3125 -44.203125 L 3.3125 0 L 14.136719 0 L 14.136719 -22.550781 C 14.136719 -29.261719 18.703125 -34.898438 25.414062 -34.898438 C 32.394531 -34.898438 36.0625 -29.796875 36.0625 -23.085938 L 36.0625 0 Z M 46.976562 0 "/></g></g></g><g fill="#ffffff" fill-opacity="1"><g transform="translate(262.559936, 281.73897)"><g/></g></g><g fill="#ffffff" fill-opacity="1"><g transform="translate(280.633394, 281.73897)"><g><path d="M 18.074219 0 L 18.074219 -33.914062 L 31.050781 -33.914062 L 31.050781 -43.488281 L 18.074219 -43.488281 L 18.074219 -46.441406 C 18.074219 -51.808594 20.9375 -54.316406 24.695312 -54.316406 C 26.933594 -54.316406 29.082031 -53.511719 31.410156 -51.988281 L 35.433594 -60.132812 C 31.855469 -62.457031 27.828125 -63.710938 23.980469 -63.710938 C 15.121094 -63.710938 7.160156 -58.253906 7.160156 -46.441406 L 7.160156 -43.488281 L -1.074219 -43.488281 L -1.074219 -33.914062 L 7.160156 -33.914062 L 7.160156 0 Z M 18.074219 0 "/></g></g></g><g fill="#ffffff" fill-opacity="1"><g transform="translate(316.690842, 281.73897)"><g><path d="M 24.339844 -45.007812 C 10.289062 -45.007812 1.519531 -34.628906 1.519531 -22.011719 C 1.519531 -9.304688 10.113281 0.984375 24.429688 0.984375 C 38.746094 0.984375 47.425781 -9.304688 47.425781 -22.011719 C 47.425781 -34.628906 38.386719 -45.007812 24.339844 -45.007812 Z M 24.429688 -35.078125 C 31.765625 -35.078125 36.417969 -28.632812 36.417969 -22.011719 C 36.417969 -15.300781 32.394531 -9.039062 24.429688 -9.039062 C 16.464844 -9.039062 12.4375 -15.300781 12.4375 -22.011719 C 12.4375 -28.632812 16.554688 -35.078125 24.429688 -35.078125 Z M 24.429688 -35.078125 "/></g></g></g><g fill="#ffffff" fill-opacity="1"><g transform="translate(368.048101, 281.73897)"><g><path d="M 46.976562 0 L 46.976562 -23.175781 C 46.976562 -37.046875 38.65625 -44.832031 28.277344 -44.832031 C 22.730469 -44.832031 18.253906 -42.59375 13.78125 -38.210938 L 13.0625 -44.203125 L 3.3125 -44.203125 L 3.3125 0 L 14.136719 0 L 14.136719 -22.550781 C 14.136719 -29.261719 18.703125 -34.898438 25.414062 -34.898438 C 32.394531 -34.898438 36.0625 -29.796875 36.0625 -23.085938 L 36.0625 0 Z M 46.976562 0 "/></g></g></g><g fill="#ffffff" fill-opacity="1"><g transform="translate(420.836924, 281.73897)"><g><path d="M 34.09375 -12.796875 C 31.410156 -10.113281 27.917969 -9.128906 24.429688 -9.128906 C 17.628906 -9.128906 11.902344 -13.601562 11.902344 -22.011719 C 11.902344 -29.707031 17.269531 -35.078125 24.609375 -35.078125 C 27.648438 -35.078125 30.871094 -33.914062 33.464844 -31.585938 L 40.355469 -38.835938 C 35.523438 -43.578125 30.691406 -45.367188 24.429688 -45.367188 C 11.632812 -45.367188 0.984375 -37.671875 0.984375 -22.011719 C 0.984375 -6.351562 11.632812 1.34375 24.429688 1.34375 C 30.960938 1.34375 36.328125 -0.625 41.429688 -5.636719 Z M 34.09375 -12.796875 "/></g></g></g><g fill="#ffffff" fill-opacity="1"><g transform="translate(463.515351, 281.73897)"><g><path d="M 8.054688 -55.390625 L 8.054688 -44.023438 L -0.179688 -44.023438 L -0.179688 -34.628906 L 8.054688 -34.628906 L 8.054688 -15.570312 C 8.054688 -4.5625 14.316406 0.894531 23.890625 0.535156 C 27.203125 0.449219 29.796875 -0.0898438 32.929688 -1.34375 L 29.886719 -10.648438 C 28.277344 -9.84375 26.308594 -9.304688 24.609375 -9.304688 C 21.207031 -9.304688 18.878906 -11.363281 18.878906 -15.570312 L 18.878906 -34.628906 L 31.140625 -34.628906 L 31.140625 -44.023438 L 18.96875 -44.023438 L 18.96875 -56.554688 Z M 8.054688 -55.390625 "/></g></g></g><g fill="#ffffff" fill-opacity="1"><g transform="translate(499.214918, 281.73897)"><g><path d="M 14.496094 -44.292969 L 14.496094 0 L 3.578125 0 L 3.578125 -44.292969 Z M 2.59375 -56.554688 C 2.59375 -48.050781 15.480469 -48.050781 15.480469 -56.554688 C 15.480469 -65.054688 2.59375 -65.054688 2.59375 -56.554688 Z M 2.59375 -56.554688 "/></g></g></g><g fill="#ffffff" fill-opacity="1"><g transform="translate(519.972532, 281.73897)"><g><path d="M 24.339844 -45.007812 C 10.289062 -45.007812 1.519531 -34.628906 1.519531 -22.011719 C 1.519531 -9.304688 10.113281 0.984375 24.429688 0.984375 C 38.746094 0.984375 47.425781 -9.304688 47.425781 -22.011719 C 47.425781 -34.628906 38.386719 -45.007812 24.339844 -45.007812 Z M 24.429688 -35.078125 C 31.765625 -35.078125 36.417969 -28.632812 36.417969 -22.011719 C 36.417969 -15.300781 32.394531 -9.039062 24.429688 -9.039062 C 16.464844 -9.039062 12.4375 -15.300781 12.4375 -22.011719 C 12.4375 -28.632812 16.554688 -35.078125 24.429688 -35.078125 Z M 24.429688 -35.078125 "/></g></g></g><g fill="#ffffff" fill-opacity="1"><g transform="translate(571.329813, 281.73897)"><g><path d="M 46.976562 0 L 46.976562 -23.175781 C 46.976562 -37.046875 38.65625 -44.832031 28.277344 -44.832031 C 22.730469 -44.832031 18.253906 -42.59375 13.78125 -38.210938 L 13.0625 -44.203125 L 3.3125 -44.203125 L 3.3125 0 L 14.136719 0 L 14.136719 -22.550781 C 14.136719 -29.261719 18.703125 -34.898438 25.414062 -34.898438 C 32.394531 -34.898438 36.0625 -29.796875 36.0625 -23.085938 L 36.0625 0 Z M 46.976562 0 "/></g></g></g><g fill="#ffffff" fill-opacity="1"><g transform="translate(624.118614, 281.73897)"><g><path d="M 46.976562 0 L 46.976562 -23.175781 C 46.976562 -37.046875 38.65625 -44.832031 28.277344 -44.832031 C 22.730469 -44.832031 18.253906 -42.59375 13.78125 -38.210938 L 13.0625 -44.203125 L 3.3125 -44.203125 L 3.3125 0 L 14.136719 0 L 14.136719 -22.550781 C 14.136719 -29.261719 18.703125 -34.898438 25.414062 -34.898438 C 32.394531 -34.898438 36.0625 -29.796875 36.0625 -23.085938 L 36.0625 0 Z M 46.976562 0 "/></g></g></g><g fill="#ffffff" fill-opacity="1"><g transform="translate(676.90746, 281.73897)"><g><path d="M 47.335938 -18.164062 L 12.886719 -18.164062 C 13.601562 -12.707031 18.34375 -8.769531 26.039062 -8.769531 C 30.066406 -8.769531 35.34375 -10.289062 37.851562 -12.886719 L 44.832031 -5.996094 C 40.175781 -1.164062 32.570312 1.164062 25.859375 1.164062 C 10.648438 1.164062 1.609375 -8.230469 1.609375 -22.371094 C 1.609375 -35.792969 10.738281 -45.457031 25.054688 -45.457031 C 39.820312 -45.457031 49.035156 -36.328125 47.335938 -18.164062 Z M 13.0625 -27.203125 L 36.867188 -27.203125 C 36.152344 -32.929688 31.675781 -35.792969 25.414062 -35.792969 C 19.507812 -35.792969 14.675781 -32.929688 13.0625 -27.203125 Z M 37.941406 -63.980469 L 25.054688 -63.980469 L 18.433594 -51.808594 L 18.433594 -51.273438 L 28.097656 -51.273438 L 37.941406 -63.53125 Z M 37.941406 -63.980469 "/></g></g></g></svg>