<svg xmlns="http://www.w3.org/2000/svg" xmlns:xlink="http://www.w3.org/1999/xlink" width="1080" zoomAndPan="magnify" viewBox="0 0 810 809.999993" height="1080" preserveAspectRatio="xMidYMid meet" version="1.0"><defs><g/><clipPath id="a37d04b902"><path d="M 376 661 L 434 661 L 434 698.917969 L 376 698.917969 Z M 376 661 " clip-rule="nonzero"/></clipPath><clipPath id="dd860735fa"><path d="M 491 489 L 534.679688 489 L 534.679688 500 L 491 500 Z M 491 489 " clip-rule="nonzero"/></clipPath><clipPath id="25f061a1f5"><path d="M 274.429688 487 L 318 487 L 318 498 L 274.429688 498 Z M 274.429688 487 " clip-rule="nonzero"/></clipPath></defs><rect x="-81" width="972" fill="#ffffff" y="-80.999999" height="971.999992" fill-opacity="1"/><rect x="-81" width="972" fill="#ffffff" y="-80.999999" height="971.999992" fill-opacity="1"/><rect x="-81" width="972" fill="#ffcc00" y="-80.999999" height="971.999992" fill-opacity="1"/><path fill="#ffffff" d="M 440.496094 625.054688 L 369.683594 625.054688 C 367.03125 625.054688 364.871094 622.894531 364.871094 620.242188 L 364.871094 607.414062 C 364.871094 590.03125 358.429688 572.972656 346.726562 559.390625 C 334.707031 545.429688 328.082031 527.578125 328.082031 509.125 C 328.082031 468.347656 359.929688 434.5625 400.589844 432.214844 C 422.601562 430.941406 444.183594 439.292969 459.789062 455.128906 C 475.402344 470.964844 483.457031 492.671875 481.886719 514.691406 C 480.6875 531.511719 474.171875 547.128906 463.046875 559.847656 C 451.601562 572.921875 445.304688 589.738281 445.304688 607.199219 L 445.304688 620.25 C 445.308594 622.894531 443.148438 625.054688 440.496094 625.054688 Z M 374.398438 615.515625 L 435.769531 615.515625 L 435.769531 607.191406 C 435.769531 587.425781 442.90625 568.375 455.867188 553.5625 C 465.613281 542.421875 471.324219 528.746094 472.378906 514.011719 C 473.75 494.734375 466.6875 475.710938 453 461.832031 C 439.316406 447.957031 420.417969 440.621094 401.136719 441.75 C 365.519531 443.804688 337.617188 473.402344 337.617188 509.140625 C 337.617188 525.304688 343.414062 540.945312 353.949219 553.175781 C 367.140625 568.492188 374.398438 587.753906 374.398438 607.425781 Z M 374.398438 615.515625 " fill-opacity="1" fill-rule="nonzero"/><path fill="#ffffff" d="M 441.882812 640.421875 L 368.285156 640.421875 C 361.515625 640.421875 356.007812 634.90625 356.007812 628.132812 L 356.007812 627.796875 C 356.007812 621.023438 361.515625 615.515625 368.285156 615.515625 L 441.882812 615.515625 C 448.652344 615.515625 454.160156 621.023438 454.160156 627.796875 L 454.160156 628.132812 C 454.164062 634.90625 448.652344 640.421875 441.882812 640.421875 Z M 368.285156 625.054688 C 366.796875 625.054688 365.542969 626.316406 365.542969 627.796875 L 365.542969 628.132812 C 365.542969 629.621094 366.804688 630.882812 368.285156 630.882812 L 441.882812 630.882812 C 443.371094 630.882812 444.625 629.621094 444.625 628.132812 L 444.625 627.796875 C 444.625 626.308594 443.363281 625.054688 441.882812 625.054688 Z M 368.285156 625.054688 " fill-opacity="1" fill-rule="nonzero"/><path fill="#ffffff" d="M 441.882812 655.789062 L 368.285156 655.789062 C 361.515625 655.789062 356.007812 650.28125 356.007812 643.507812 L 356.007812 643.167969 C 356.007812 636.394531 361.515625 630.886719 368.285156 630.886719 L 441.882812 630.886719 C 448.652344 630.886719 454.160156 636.394531 454.160156 643.167969 L 454.160156 643.507812 C 454.164062 650.273438 448.652344 655.789062 441.882812 655.789062 Z M 368.285156 640.421875 C 366.796875 640.421875 365.542969 641.679688 365.542969 643.164062 L 365.542969 643.5 C 365.542969 644.988281 366.804688 646.242188 368.285156 646.242188 L 441.882812 646.242188 C 443.371094 646.242188 444.625 644.980469 444.625 643.5 L 444.625 643.164062 C 444.625 641.675781 443.363281 640.421875 441.882812 640.421875 Z M 368.285156 640.421875 " fill-opacity="1" fill-rule="nonzero"/><path fill="#ffffff" d="M 441.882812 671.148438 L 368.285156 671.148438 C 361.515625 671.148438 356.007812 665.640625 356.007812 658.867188 L 356.007812 658.527344 C 356.007812 651.753906 361.515625 646.242188 368.285156 646.242188 L 441.882812 646.242188 C 448.652344 646.242188 454.160156 651.753906 454.160156 658.527344 L 454.160156 658.867188 C 454.164062 665.640625 448.652344 671.148438 441.882812 671.148438 Z M 368.285156 655.789062 C 366.796875 655.789062 365.542969 657.046875 365.542969 658.535156 L 365.542969 658.867188 C 365.542969 660.355469 366.804688 661.605469 368.285156 661.605469 L 441.882812 661.605469 C 443.371094 661.605469 444.625 660.347656 444.625 658.867188 L 444.625 658.527344 C 444.625 657.039062 443.363281 655.78125 441.882812 655.78125 L 368.285156 655.78125 Z M 368.285156 655.789062 " fill-opacity="1" fill-rule="nonzero"/><g clip-path="url(#a37d04b902)"><path fill="#ffffff" d="M 405.605469 698.839844 L 404.5625 698.839844 C 389.070312 698.839844 376.464844 686.226562 376.464844 670.726562 L 376.464844 666.378906 C 376.464844 663.742188 378.601562 661.605469 381.234375 661.605469 L 428.933594 661.605469 C 431.566406 661.605469 433.703125 663.742188 433.703125 666.378906 L 433.703125 670.726562 C 433.703125 686.226562 421.097656 698.839844 405.605469 698.839844 Z M 386.007812 671.148438 C 386.230469 681.195312 394.46875 689.296875 404.5625 689.296875 L 405.605469 689.296875 C 415.699219 689.296875 423.9375 681.195312 424.160156 671.148438 Z M 386.007812 671.148438 " fill-opacity="1" fill-rule="nonzero"/></g><path fill="#ffffff" d="M 406.617188 419.242188 C 403.984375 419.242188 401.847656 417.105469 401.847656 414.46875 L 401.847656 376.800781 C 401.847656 374.167969 403.984375 372.03125 406.617188 372.03125 C 409.246094 372.03125 411.382812 374.167969 411.382812 376.800781 L 411.382812 414.46875 C 411.382812 417.109375 409.246094 419.242188 406.617188 419.242188 Z M 406.617188 419.242188 " fill-opacity="1" fill-rule="nonzero"/><path fill="#ffffff" d="M 468.796875 443.910156 C 467.578125 443.910156 466.359375 443.445312 465.429688 442.511719 C 463.566406 440.648438 463.566406 437.628906 465.429688 435.765625 L 490.121094 411.0625 C 491.980469 409.199219 495 409.199219 496.863281 411.0625 C 498.726562 412.925781 498.726562 415.945312 496.863281 417.808594 L 472.175781 442.511719 C 471.238281 443.441406 470.019531 443.910156 468.796875 443.910156 Z M 468.796875 443.910156 " fill-opacity="1" fill-rule="nonzero"/><g clip-path="url(#dd860735fa)"><path fill="#ffffff" d="M 529.9375 499.050781 L 496.246094 499.050781 C 493.617188 499.050781 491.480469 496.914062 491.480469 494.28125 C 491.480469 491.648438 493.617188 489.511719 496.246094 489.511719 L 529.9375 489.511719 C 532.570312 489.511719 534.707031 491.648438 534.707031 494.28125 C 534.707031 496.914062 532.570312 499.050781 529.9375 499.050781 Z M 529.9375 499.050781 " fill-opacity="1" fill-rule="nonzero"/></g><path fill="#ffffff" d="M 340.339844 442.027344 C 339.117188 442.027344 337.898438 441.5625 336.96875 440.628906 L 312.28125 415.925781 C 310.417969 414.0625 310.417969 411.042969 312.28125 409.179688 C 314.140625 407.316406 317.160156 407.316406 319.023438 409.179688 L 343.714844 433.882812 C 345.578125 435.746094 345.578125 438.765625 343.714844 440.628906 C 342.78125 441.558594 341.558594 442.027344 340.339844 442.027344 Z M 340.339844 442.027344 " fill-opacity="1" fill-rule="nonzero"/><g clip-path="url(#25f061a1f5)"><path fill="#ffffff" d="M 312.890625 497.167969 L 279.199219 497.167969 C 276.566406 497.167969 274.429688 495.03125 274.429688 492.398438 C 274.429688 489.765625 276.566406 487.628906 279.199219 487.628906 L 312.890625 487.628906 C 315.523438 487.628906 317.65625 489.765625 317.65625 492.398438 C 317.65625 495.03125 315.523438 497.167969 312.890625 497.167969 Z M 312.890625 497.167969 " fill-opacity="1" fill-rule="nonzero"/></g><path fill="#ffffff" d="M 430.570312 545.855469 C 429.8125 545.855469 429.050781 545.675781 428.351562 545.308594 L 406.617188 533.875 L 384.882812 545.308594 C 383.273438 546.152344 381.328125 546.015625 379.859375 544.945312 C 378.390625 543.878906 377.652344 542.070312 377.964844 540.285156 L 382.117188 516.070312 L 364.535156 498.925781 C 363.238281 497.660156 362.765625 495.765625 363.324219 494.035156 C 363.886719 492.308594 365.378906 491.050781 367.171875 490.789062 L 391.472656 487.261719 L 402.34375 465.230469 C 403.144531 463.601562 404.804688 462.570312 406.621094 462.570312 C 408.433594 462.570312 410.09375 463.601562 410.898438 465.230469 L 421.769531 487.261719 L 446.074219 490.789062 C 447.871094 491.050781 449.359375 492.308594 449.917969 494.035156 C 450.476562 495.765625 450.015625 497.660156 448.710938 498.925781 L 431.128906 516.070312 L 435.277344 540.285156 C 435.585938 542.070312 434.851562 543.882812 433.382812 544.945312 C 432.546875 545.550781 431.558594 545.855469 430.570312 545.855469 Z M 406.617188 523.714844 C 407.378906 523.714844 408.140625 523.902344 408.835938 524.261719 L 424.238281 532.367188 L 421.292969 515.207031 C 421.027344 513.660156 421.542969 512.078125 422.667969 510.984375 L 435.125 498.828125 L 417.90625 496.324219 C 416.355469 496.101562 415.011719 495.121094 414.3125 493.714844 L 406.609375 478.101562 L 398.90625 493.714844 C 398.210938 495.121094 396.871094 496.101562 395.3125 496.324219 L 378.09375 498.828125 L 390.550781 510.984375 C 391.675781 512.078125 392.1875 513.660156 391.925781 515.207031 L 388.980469 532.367188 L 404.382812 524.261719 C 405.089844 523.902344 405.851562 523.714844 406.617188 523.714844 Z M 406.617188 523.714844 " fill-opacity="1" fill-rule="nonzero"/><g fill="#ffffff" fill-opacity="1"><g transform="translate(245.731369, 180.569776)"><g><path d="M 51.542969 -16.015625 C 47.425781 -11.902344 41.25 -9.664062 35.792969 -9.664062 C 20.3125 -9.664062 14.316406 -20.492188 14.226562 -30.871094 C 14.136719 -41.339844 20.671875 -52.617188 35.792969 -52.617188 C 41.25 -52.617188 46.800781 -50.738281 50.914062 -46.710938 L 58.789062 -54.316406 C 52.347656 -60.667969 44.292969 -63.890625 35.792969 -63.890625 C 13.152344 -63.890625 2.503906 -47.246094 2.59375 -30.871094 C 2.683594 -14.585938 12.527344 1.433594 35.792969 1.433594 C 44.832031 1.433594 53.152344 -1.519531 59.59375 -7.875 Z M 51.542969 -16.015625 "/></g></g></g><g fill="#ffffff" fill-opacity="1"><g transform="translate(304.783281, 180.569776)"><g><path d="M 24.339844 -45.007812 C 10.289062 -45.007812 1.519531 -34.628906 1.519531 -22.011719 C 1.519531 -9.304688 10.113281 0.984375 24.429688 0.984375 C 38.746094 0.984375 47.425781 -9.304688 47.425781 -22.011719 C 47.425781 -34.628906 38.386719 -45.007812 24.339844 -45.007812 Z M 24.429688 -35.078125 C 31.765625 -35.078125 36.417969 -28.632812 36.417969 -22.011719 C 36.417969 -15.300781 32.394531 -9.039062 24.429688 -9.039062 C 16.464844 -9.039062 12.4375 -15.300781 12.4375 -22.011719 C 12.4375 -28.632812 16.554688 -35.078125 24.429688 -35.078125 Z M 24.429688 -35.078125 "/></g></g></g><g fill="#ffffff" fill-opacity="1"><g transform="translate(356.140551, 180.569776)"><g><path d="M 46.976562 0 L 46.976562 -23.175781 C 46.976562 -37.046875 38.65625 -44.832031 28.277344 -44.832031 C 22.730469 -44.832031 18.253906 -42.59375 13.78125 -38.210938 L 13.0625 -44.203125 L 3.3125 -44.203125 L 3.3125 0 L 14.136719 0 L 14.136719 -22.550781 C 14.136719 -29.261719 18.703125 -34.898438 25.414062 -34.898438 C 32.394531 -34.898438 36.0625 -29.796875 36.0625 -23.085938 L 36.0625 0 Z M 46.976562 0 "/></g></g></g><g fill="#ffffff" fill-opacity="1"><g transform="translate(408.929374, 180.569776)"><g><path d="M 38.476562 -39.550781 C 33.378906 -44.023438 28.1875 -45.367188 21.296875 -45.367188 C 13.242188 -45.367188 2.683594 -41.789062 2.683594 -31.585938 C 2.683594 -21.566406 12.617188 -18.523438 20.9375 -17.898438 C 27.203125 -17.539062 29.707031 -16.285156 29.707031 -13.242188 C 29.707031 -10.023438 25.859375 -7.875 21.746094 -7.964844 C 16.824219 -8.054688 9.664062 -10.648438 6.53125 -14.136719 L 1.164062 -6.351562 C 7.605469 0.359375 14.585938 1.519531 21.566406 1.519531 C 34.183594 1.519531 40.535156 -5.191406 40.535156 -12.976562 C 40.535156 -24.695312 29.976562 -26.578125 21.65625 -27.113281 C 16.015625 -27.472656 13.421875 -29.082031 13.421875 -31.945312 C 13.421875 -34.71875 16.285156 -36.328125 21.476562 -36.328125 C 25.679688 -36.328125 29.261719 -35.34375 32.394531 -32.394531 Z M 38.476562 -39.550781 "/></g></g></g><g fill="#ffffff" fill-opacity="1"><g transform="translate(452.860402, 180.569776)"><g><path d="M 47.335938 -18.164062 C 49.035156 -36.328125 39.820312 -45.457031 25.054688 -45.457031 C 10.738281 -45.457031 1.609375 -35.792969 1.609375 -22.371094 C 1.609375 -8.230469 10.648438 1.164062 25.859375 1.164062 C 32.570312 1.164062 40.175781 -1.164062 44.832031 -5.996094 L 37.851562 -12.886719 C 35.34375 -10.289062 30.066406 -8.769531 26.039062 -8.769531 C 18.34375 -8.769531 13.601562 -12.707031 12.886719 -18.164062 Z M 13.0625 -27.203125 C 14.675781 -32.929688 19.507812 -35.792969 25.414062 -35.792969 C 31.675781 -35.792969 36.152344 -32.929688 36.867188 -27.203125 Z M 13.0625 -27.203125 "/></g></g></g><g fill="#ffffff" fill-opacity="1"><g transform="translate(505.022936, 180.569776)"><g><path d="M 14.496094 -44.292969 L 14.496094 0 L 3.578125 0 L 3.578125 -44.292969 Z M 2.59375 -56.554688 C 2.59375 -48.050781 15.480469 -48.050781 15.480469 -56.554688 C 15.480469 -65.054688 2.59375 -65.054688 2.59375 -56.554688 Z M 2.59375 -56.554688 "/></g></g></g><g fill="#ffffff" fill-opacity="1"><g transform="translate(525.780572, 180.569776)"><g><path d="M 3.578125 -62.546875 L 3.578125 0 L 14.40625 0 L 14.40625 -62.546875 Z M 3.578125 -62.546875 "/></g></g></g><g fill="#ffffff" fill-opacity="1"><g transform="translate(546.176666, 180.569776)"><g/></g></g><g fill="#ffffff" fill-opacity="1"><g transform="translate(155.942311, 279.569771)"><g><path d="M 24.964844 -34.988281 C 31.855469 -34.988281 37.761719 -29.796875 37.761719 -22.101562 C 37.761719 -14.136719 31.855469 -9.128906 24.964844 -9.128906 C 17.984375 -9.128906 12.4375 -14.40625 12.4375 -22.101562 C 12.4375 -30.066406 17.984375 -34.988281 24.964844 -34.988281 Z M 38.476562 -62.546875 L 38.476562 -38.121094 C 35.882812 -42.683594 28.632812 -45.1875 23.980469 -45.1875 C 11.097656 -45.1875 1.519531 -37.3125 1.519531 -22.101562 C 1.519531 -7.605469 11.273438 0.984375 24.25 0.984375 C 29.617188 0.984375 35.078125 -0.804688 38.476562 -6.085938 L 39.191406 0 L 49.394531 0 L 49.394531 -62.546875 Z M 38.476562 -62.546875 "/></g></g></g><g fill="#ffffff" fill-opacity="1"><g transform="translate(211.236372, 279.569771)"><g><path d="M 4.027344 -62.546875 L 4.027344 -38.566406 L 13.960938 -38.566406 L 13.960938 -62.546875 Z M 4.027344 -62.546875 "/></g></g></g><g fill="#ffffff" fill-opacity="1"><g transform="translate(230.383503, 279.569771)"><g><path d="M 38.210938 -38.03125 C 35.703125 -42.414062 30.066406 -45.1875 24.160156 -45.1875 C 11.273438 -45.277344 1.164062 -37.3125 1.164062 -22.101562 C 1.164062 -6.621094 10.828125 1.433594 23.890625 1.34375 C 28.8125 1.253906 35.703125 -1.253906 38.210938 -6.441406 L 38.746094 0 L 49.035156 0 L 49.035156 -44.113281 L 38.566406 -44.113281 Z M 25.144531 -35.433594 C 42.324219 -35.433594 42.324219 -8.679688 25.144531 -8.679688 C 17.898438 -8.679688 12.082031 -13.691406 12.082031 -22.101562 C 12.082031 -30.511719 17.898438 -35.433594 25.144531 -35.433594 Z M 25.144531 -35.433594 "/></g></g></g><g fill="#ffffff" fill-opacity="1"><g transform="translate(285.051252, 279.569771)"><g><path d="M 46.976562 0 L 46.976562 -23.175781 C 46.976562 -37.046875 38.65625 -44.832031 28.277344 -44.832031 C 22.730469 -44.832031 18.253906 -42.59375 13.78125 -38.210938 L 13.0625 -44.203125 L 3.3125 -44.203125 L 3.3125 0 L 14.136719 0 L 14.136719 -22.550781 C 14.136719 -29.261719 18.703125 -34.898438 25.414062 -34.898438 C 32.394531 -34.898438 36.0625 -29.796875 36.0625 -23.085938 L 36.0625 0 Z M 46.976562 0 "/></g></g></g><g fill="#ffffff" fill-opacity="1"><g transform="translate(337.840075, 279.569771)"><g><path d="M 14.496094 -44.292969 L 14.496094 0 L 3.578125 0 L 3.578125 -44.292969 Z M 2.59375 -56.554688 C 2.59375 -48.050781 15.480469 -48.050781 15.480469 -56.554688 C 15.480469 -65.054688 2.59375 -65.054688 2.59375 -56.554688 Z M 2.59375 -56.554688 "/></g></g></g><g fill="#ffffff" fill-opacity="1"><g transform="translate(358.597711, 279.569771)"><g><path d="M 43.847656 0 L 43.847656 -23.625 C 43.847656 -29.441406 47.515625 -34.539062 53.421875 -34.539062 C 59.328125 -34.539062 61.742188 -29.617188 61.742188 -23.800781 L 61.742188 0 L 72.660156 0 L 72.660156 -23.800781 C 72.660156 -37.046875 66.484375 -44.742188 53.957031 -44.742188 C 48.230469 -44.742188 43.128906 -42.953125 39.191406 -36.6875 C 36.6875 -42.773438 31.410156 -44.921875 26.128906 -44.921875 C 21.921875 -44.921875 16.824219 -43.308594 14.496094 -38.835938 L 13.691406 -44.203125 L 3.578125 -44.203125 L 3.578125 0 L 14.496094 0 L 14.496094 -23.625 C 14.496094 -29.441406 17.984375 -34.71875 23.890625 -34.71875 C 29.886719 -34.71875 32.929688 -29.441406 32.929688 -23.625 L 32.929688 0 Z M 43.847656 0 "/></g></g></g><g fill="#ffffff" fill-opacity="1"><g transform="translate(438.765149, 279.569771)"><g><path d="M 38.210938 -38.03125 C 35.703125 -42.414062 30.066406 -45.1875 24.160156 -45.1875 C 11.273438 -45.277344 1.164062 -37.3125 1.164062 -22.101562 C 1.164062 -6.621094 10.828125 1.433594 23.890625 1.34375 C 28.8125 1.253906 35.703125 -1.253906 38.210938 -6.441406 L 38.746094 0 L 49.035156 0 L 49.035156 -44.113281 L 38.566406 -44.113281 Z M 25.144531 -35.433594 C 42.324219 -35.433594 42.324219 -8.679688 25.144531 -8.679688 C 17.898438 -8.679688 12.082031 -13.691406 12.082031 -22.101562 C 12.082031 -30.511719 17.898438 -35.433594 25.144531 -35.433594 Z M 25.144531 -35.433594 "/></g></g></g><g fill="#ffffff" fill-opacity="1"><g transform="translate(493.432909, 279.569771)"><g><path d="M 8.054688 -55.390625 L 8.054688 -44.023438 L -0.179688 -44.023438 L -0.179688 -34.628906 L 8.054688 -34.628906 L 8.054688 -15.570312 C 8.054688 -4.5625 14.316406 0.894531 23.890625 0.535156 C 27.203125 0.449219 29.796875 -0.0898438 32.929688 -1.34375 L 29.886719 -10.648438 C 28.277344 -9.84375 26.308594 -9.304688 24.609375 -9.304688 C 21.207031 -9.304688 18.878906 -11.363281 18.878906 -15.570312 L 18.878906 -34.628906 L 31.140625 -34.628906 L 31.140625 -44.023438 L 18.96875 -44.023438 L 18.96875 -56.554688 Z M 8.054688 -55.390625 "/></g></g></g><g fill="#ffffff" fill-opacity="1"><g transform="translate(529.132476, 279.569771)"><g><path d="M 14.496094 -44.292969 L 14.496094 0 L 3.578125 0 L 3.578125 -44.292969 Z M 2.59375 -56.554688 C 2.59375 -48.050781 15.480469 -48.050781 15.480469 -56.554688 C 15.480469 -65.054688 2.59375 -65.054688 2.59375 -56.554688 Z M 2.59375 -56.554688 "/></g></g></g><g fill="#ffffff" fill-opacity="1"><g transform="translate(549.890135, 279.569771)"><g><path d="M 24.339844 -45.007812 C 10.289062 -45.007812 1.519531 -34.628906 1.519531 -22.011719 C 1.519531 -9.304688 10.113281 0.984375 24.429688 0.984375 C 38.746094 0.984375 47.425781 -9.304688 47.425781 -22.011719 C 47.425781 -34.628906 38.386719 -45.007812 24.339844 -45.007812 Z M 24.429688 -35.078125 C 31.765625 -35.078125 36.417969 -28.632812 36.417969 -22.011719 C 36.417969 -15.300781 32.394531 -9.039062 24.429688 -9.039062 C 16.464844 -9.039062 12.4375 -15.300781 12.4375 -22.011719 C 12.4375 -28.632812 16.554688 -35.078125 24.429688 -35.078125 Z M 24.429688 -35.078125 "/></g></g></g><g fill="#ffffff" fill-opacity="1"><g transform="translate(601.247417, 279.569771)"><g><path d="M 46.976562 0 L 46.976562 -23.175781 C 46.976562 -37.046875 38.65625 -44.832031 28.277344 -44.832031 C 22.730469 -44.832031 18.253906 -42.59375 13.78125 -38.210938 L 13.0625 -44.203125 L 3.3125 -44.203125 L 3.3125 0 L 14.136719 0 L 14.136719 -22.550781 C 14.136719 -29.261719 18.703125 -34.898438 25.414062 -34.898438 C 32.394531 -34.898438 36.0625 -29.796875 36.0625 -23.085938 L 36.0625 0 Z M 46.976562 0 "/></g></g></g></svg>