<svg xmlns="http://www.w3.org/2000/svg" xmlns:xlink="http://www.w3.org/1999/xlink" width="1080" zoomAndPan="magnify" viewBox="0 0 810 809.999993" height="1080" preserveAspectRatio="xMidYMid meet" version="1.0"><defs><filter x="0%" y="0%" width="100%" height="100%" id="9f46e115ce"><feColorMatrix values="0 0 0 0 1 0 0 0 0 1 0 0 0 0 1 0 0 0 1 0" color-interpolation-filters="sRGB"/></filter><g/><mask id="ae60700bf6"><g filter="url(#9f46e115ce)"><rect x="-81" width="972" fill="#000000" y="-80.999999" height="971.999992" fill-opacity="0.4"/></g></mask><clipPath id="75a500e08e"><path d="M 1 0.398438 L 329 0.398438 L 329 328.238281 L 1 328.238281 Z M 1 0.398438 " clip-rule="nonzero"/></clipPath><clipPath id="39bd423533"><rect x="0" width="330" y="0" height="329"/></clipPath></defs><rect x="-81" width="972" fill="#ffffff" y="-80.999999" height="971.999992" fill-opacity="1"/><rect x="-81" width="972" fill="#ffffff" y="-80.999999" height="971.999992" fill-opacity="1"/><rect x="-81" width="972" fill="#ffffff" y="-80.999999" height="971.999992" fill-opacity="1"/><rect x="-81" width="972" fill="#23ae84" y="-80.999999" height="971.999992" fill-opacity="1"/><g mask="url(#ae60700bf6)"><g transform="matrix(1, 0, 0, 1, 240, 374)"><g clip-path="url(#39bd423533)"><g clip-path="url(#75a500e08e)"><path fill="#ffffff" d="M 328.84375 165.402344 C 328.261719 255.789062 254.4375 328.585938 163.957031 328.003906 C 73.476562 327.421875 0.601562 253.671875 1.183594 163.285156 C 1.769531 72.898438 75.59375 0.101562 166.074219 0.683594 C 256.554688 1.265625 329.429688 75.015625 328.84375 165.402344 " fill-opacity="1" fill-rule="nonzero"/></g><path fill="#23ae84" d="M 236.640625 133.199219 L 186.320312 132.875 C 193.070312 108.359375 197.535156 77.558594 177.824219 74.34375 C 169.148438 72.929688 162.003906 79.371094 161.960938 86.367188 C 161.960938 86.367188 156.167969 118.394531 129.644531 135.003906 C 128.496094 135.695312 127.453125 136.523438 126.527344 137.453125 C 126.464844 137.503906 126.425781 137.53125 126.425781 137.53125 C 126.425781 137.53125 126.4375 137.539062 126.441406 137.539062 C 124.023438 140.011719 122.484375 143.222656 122.265625 146.773438 C 122.246094 147.007812 122.226562 147.238281 122.222656 147.476562 L 122.222656 147.53125 L 122.03125 177.375 L 122.023438 177.953125 L 121.835938 207.265625 L 121.828125 208.328125 L 121.644531 236.789062 L 121.640625 237.46875 L 121.628906 239.074219 C 121.582031 246.761719 128.296875 253.039062 136.632812 253.09375 L 218.058594 253.621094 C 226.394531 253.675781 233.191406 247.484375 233.242188 239.792969 L 233.257812 237.511719 C 233.304688 229.820312 226.589844 223.539062 218.253906 223.488281 L 227.574219 223.546875 C 236.277344 223.605469 243.371094 217.140625 243.421875 209.113281 L 243.429688 208.050781 C 243.484375 200.023438 236.472656 193.46875 227.769531 193.414062 L 231.59375 193.4375 C 240.441406 193.496094 247.65625 186.925781 247.710938 178.765625 L 247.714844 178.183594 C 247.765625 170.023438 240.636719 163.359375 231.789062 163.304688 L 236.445312 163.335938 C 245.464844 163.394531 252.820312 156.695312 252.875 148.371094 C 252.929688 140.050781 245.660156 133.257812 236.640625 133.199219 Z M 109.929688 254.542969 L 82.027344 254.359375 C 79.320312 254.34375 77.140625 252.136719 77.15625 249.433594 L 77.847656 142.113281 C 77.867188 139.410156 80.078125 137.230469 82.785156 137.25 L 110.6875 137.429688 C 113.394531 137.449219 115.578125 139.652344 115.558594 142.359375 L 114.863281 249.675781 C 114.847656 252.378906 112.636719 254.558594 109.929688 254.542969 " fill-opacity="1" fill-rule="nonzero"/></g></g></g><g fill="#ffffff" fill-opacity="1"><g transform="translate(230.121995, 182.738939)"><g><path d="M 51.542969 -16.015625 C 47.425781 -11.902344 41.25 -9.664062 35.792969 -9.664062 C 20.3125 -9.664062 14.316406 -20.492188 14.226562 -30.871094 C 14.136719 -41.339844 20.671875 -52.617188 35.792969 -52.617188 C 41.25 -52.617188 46.800781 -50.738281 50.914062 -46.710938 L 58.789062 -54.316406 C 52.347656 -60.667969 44.292969 -63.890625 35.792969 -63.890625 C 13.152344 -63.890625 2.503906 -47.246094 2.59375 -30.871094 C 2.683594 -14.585938 12.527344 1.433594 35.792969 1.433594 C 44.832031 1.433594 53.152344 -1.519531 59.59375 -7.875 Z M 51.542969 -16.015625 "/></g></g></g><g fill="#ffffff" fill-opacity="1"><g transform="translate(289.173906, 182.738939)"><g><path d="M 47.335938 -18.164062 C 49.035156 -36.328125 39.820312 -45.457031 25.054688 -45.457031 C 10.738281 -45.457031 1.609375 -35.792969 1.609375 -22.371094 C 1.609375 -8.230469 10.648438 1.164062 25.859375 1.164062 C 32.570312 1.164062 40.175781 -1.164062 44.832031 -5.996094 L 37.851562 -12.886719 C 35.34375 -10.289062 30.066406 -8.769531 26.039062 -8.769531 C 18.34375 -8.769531 13.601562 -12.707031 12.886719 -18.164062 Z M 13.0625 -27.203125 C 14.675781 -32.929688 19.507812 -35.792969 25.414062 -35.792969 C 31.675781 -35.792969 36.152344 -32.929688 36.867188 -27.203125 Z M 13.0625 -27.203125 "/></g></g></g><g fill="#ffffff" fill-opacity="1"><g transform="translate(341.336429, 182.738939)"><g/></g></g><g fill="#ffffff" fill-opacity="1"><g transform="translate(359.409888, 182.738939)"><g><path d="M 24.875 -9.484375 C 17.449219 -9.484375 12.347656 -15.121094 12.347656 -22.011719 C 12.347656 -28.902344 17 -34.539062 24.875 -34.539062 C 32.75 -34.539062 37.402344 -28.902344 37.402344 -22.011719 C 37.402344 -15.121094 32.304688 -9.484375 24.875 -9.484375 Z M 49.304688 18.433594 L 49.304688 -44.113281 L 39.105469 -44.113281 L 38.386719 -38.03125 C 34.988281 -42.953125 29.082031 -45.097656 24.070312 -45.097656 C 10.46875 -45.097656 1.433594 -34.988281 1.433594 -22.011719 C 1.433594 -9.128906 9.574219 1.074219 23.710938 1.074219 C 28.367188 1.074219 35.257812 -0.359375 38.386719 -5.191406 L 38.386719 18.433594 Z M 49.304688 18.433594 "/></g></g></g><g fill="#ffffff" fill-opacity="1"><g transform="translate(414.703948, 182.738939)"><g><path d="M 3.847656 -44.113281 L 3.847656 -20.9375 C 3.847656 -7.25 11.542969 0.714844 22.101562 0.714844 C 28.277344 0.714844 32.480469 -1.433594 37.046875 -5.90625 L 37.761719 0.0898438 L 47.515625 0.0898438 L 47.515625 -44.113281 L 36.6875 -44.113281 L 36.6875 -21.566406 C 36.6875 -14.855469 32.125 -9.214844 25.414062 -9.214844 C 18.433594 -9.214844 14.765625 -14.316406 14.765625 -21.027344 L 14.765625 -44.113281 Z M 3.847656 -44.113281 "/></g></g></g><g fill="#ffffff" fill-opacity="1"><g transform="translate(468.298024, 182.738939)"><g><path d="M 14.496094 -44.292969 L 14.496094 0 L 3.578125 0 L 3.578125 -44.292969 Z M 2.59375 -56.554688 C 2.59375 -48.050781 15.480469 -48.050781 15.480469 -56.554688 C 15.480469 -65.054688 2.59375 -65.054688 2.59375 -56.554688 Z M 2.59375 -56.554688 "/></g></g></g><g fill="#ffffff" fill-opacity="1"><g transform="translate(489.05566, 182.738939)"><g/></g></g><g fill="#ffffff" fill-opacity="1"><g transform="translate(507.129107, 182.738939)"><g><path d="M 38.210938 -38.03125 C 35.703125 -42.414062 30.066406 -45.1875 24.160156 -45.1875 C 11.273438 -45.277344 1.164062 -37.3125 1.164062 -22.101562 C 1.164062 -6.621094 10.828125 1.433594 23.890625 1.34375 C 28.8125 1.253906 35.703125 -1.253906 38.210938 -6.441406 L 38.746094 0 L 49.035156 0 L 49.035156 -44.113281 L 38.566406 -44.113281 Z M 25.144531 -35.433594 C 42.324219 -35.433594 42.324219 -8.679688 25.144531 -8.679688 C 17.898438 -8.679688 12.082031 -13.691406 12.082031 -22.101562 C 12.082031 -30.511719 17.898438 -35.433594 25.144531 -35.433594 Z M 25.144531 -35.433594 "/></g></g></g><g fill="#ffffff" fill-opacity="1"><g transform="translate(561.786041, 182.738939)"><g/></g></g><g fill="#ffffff" fill-opacity="1"><g transform="translate(180.774337, 281.738934)"><g><path d="M 18.074219 0 L 18.074219 -33.914062 L 31.050781 -33.914062 L 31.050781 -43.488281 L 18.074219 -43.488281 L 18.074219 -46.441406 C 18.074219 -51.808594 20.9375 -54.316406 24.695312 -54.316406 C 26.933594 -54.316406 29.082031 -53.511719 31.410156 -51.988281 L 35.433594 -60.132812 C 31.855469 -62.457031 27.828125 -63.710938 23.980469 -63.710938 C 15.121094 -63.710938 7.160156 -58.253906 7.160156 -46.441406 L 7.160156 -43.488281 L -1.074219 -43.488281 L -1.074219 -33.914062 L 7.160156 -33.914062 L 7.160156 0 Z M 18.074219 0 "/></g></g></g><g fill="#ffffff" fill-opacity="1"><g transform="translate(216.831785, 281.738934)"><g><path d="M 24.339844 -45.007812 C 10.289062 -45.007812 1.519531 -34.628906 1.519531 -22.011719 C 1.519531 -9.304688 10.113281 0.984375 24.429688 0.984375 C 38.746094 0.984375 47.425781 -9.304688 47.425781 -22.011719 C 47.425781 -34.628906 38.386719 -45.007812 24.339844 -45.007812 Z M 24.429688 -35.078125 C 31.765625 -35.078125 36.417969 -28.632812 36.417969 -22.011719 C 36.417969 -15.300781 32.394531 -9.039062 24.429688 -9.039062 C 16.464844 -9.039062 12.4375 -15.300781 12.4375 -22.011719 C 12.4375 -28.632812 16.554688 -35.078125 24.429688 -35.078125 Z M 24.429688 -35.078125 "/></g></g></g><g fill="#ffffff" fill-opacity="1"><g transform="translate(268.189055, 281.738934)"><g><path d="M 46.976562 0 L 46.976562 -23.175781 C 46.976562 -37.046875 38.65625 -44.832031 28.277344 -44.832031 C 22.730469 -44.832031 18.253906 -42.59375 13.78125 -38.210938 L 13.0625 -44.203125 L 3.3125 -44.203125 L 3.3125 0 L 14.136719 0 L 14.136719 -22.550781 C 14.136719 -29.261719 18.703125 -34.898438 25.414062 -34.898438 C 32.394531 -34.898438 36.0625 -29.796875 36.0625 -23.085938 L 36.0625 0 Z M 46.976562 0 "/></g></g></g><g fill="#ffffff" fill-opacity="1"><g transform="translate(320.977878, 281.738934)"><g><path d="M 34.09375 -12.796875 C 31.410156 -10.113281 27.917969 -9.128906 24.429688 -9.128906 C 17.628906 -9.128906 11.902344 -13.601562 11.902344 -22.011719 C 11.902344 -29.707031 17.269531 -35.078125 24.609375 -35.078125 C 27.648438 -35.078125 30.871094 -33.914062 33.464844 -31.585938 L 40.355469 -38.835938 C 35.523438 -43.578125 30.691406 -45.367188 24.429688 -45.367188 C 11.632812 -45.367188 0.984375 -37.671875 0.984375 -22.011719 C 0.984375 -6.351562 11.632812 1.34375 24.429688 1.34375 C 30.960938 1.34375 36.328125 -0.625 41.429688 -5.636719 Z M 34.09375 -12.796875 "/></g></g></g><g fill="#ffffff" fill-opacity="1"><g transform="translate(363.656305, 281.738934)"><g><path d="M 8.054688 -55.390625 L 8.054688 -44.023438 L -0.179688 -44.023438 L -0.179688 -34.628906 L 8.054688 -34.628906 L 8.054688 -15.570312 C 8.054688 -4.5625 14.316406 0.894531 23.890625 0.535156 C 27.203125 0.449219 29.796875 -0.0898438 32.929688 -1.34375 L 29.886719 -10.648438 C 28.277344 -9.84375 26.308594 -9.304688 24.609375 -9.304688 C 21.207031 -9.304688 18.878906 -11.363281 18.878906 -15.570312 L 18.878906 -34.628906 L 31.140625 -34.628906 L 31.140625 -44.023438 L 18.96875 -44.023438 L 18.96875 -56.554688 Z M 8.054688 -55.390625 "/></g></g></g><g fill="#ffffff" fill-opacity="1"><g transform="translate(399.355885, 281.738934)"><g><path d="M 14.496094 -44.292969 L 14.496094 0 L 3.578125 0 L 3.578125 -44.292969 Z M 2.59375 -56.554688 C 2.59375 -48.050781 15.480469 -48.050781 15.480469 -56.554688 C 15.480469 -65.054688 2.59375 -65.054688 2.59375 -56.554688 Z M 2.59375 -56.554688 "/></g></g></g><g fill="#ffffff" fill-opacity="1"><g transform="translate(420.11352, 281.738934)"><g><path d="M 24.339844 -45.007812 C 10.289062 -45.007812 1.519531 -34.628906 1.519531 -22.011719 C 1.519531 -9.304688 10.113281 0.984375 24.429688 0.984375 C 38.746094 0.984375 47.425781 -9.304688 47.425781 -22.011719 C 47.425781 -34.628906 38.386719 -45.007812 24.339844 -45.007812 Z M 24.429688 -35.078125 C 31.765625 -35.078125 36.417969 -28.632812 36.417969 -22.011719 C 36.417969 -15.300781 32.394531 -9.039062 24.429688 -9.039062 C 16.464844 -9.039062 12.4375 -15.300781 12.4375 -22.011719 C 12.4375 -28.632812 16.554688 -35.078125 24.429688 -35.078125 Z M 24.429688 -35.078125 "/></g></g></g><g fill="#ffffff" fill-opacity="1"><g transform="translate(471.47078, 281.738934)"><g><path d="M 46.976562 0 L 46.976562 -23.175781 C 46.976562 -37.046875 38.65625 -44.832031 28.277344 -44.832031 C 22.730469 -44.832031 18.253906 -42.59375 13.78125 -38.210938 L 13.0625 -44.203125 L 3.3125 -44.203125 L 3.3125 0 L 14.136719 0 L 14.136719 -22.550781 C 14.136719 -29.261719 18.703125 -34.898438 25.414062 -34.898438 C 32.394531 -34.898438 36.0625 -29.796875 36.0625 -23.085938 L 36.0625 0 Z M 46.976562 0 "/></g></g></g><g fill="#ffffff" fill-opacity="1"><g transform="translate(524.259603, 281.738934)"><g><path d="M 46.976562 0 L 46.976562 -23.175781 C 46.976562 -37.046875 38.65625 -44.832031 28.277344 -44.832031 C 22.730469 -44.832031 18.253906 -42.59375 13.78125 -38.210938 L 13.0625 -44.203125 L 3.3125 -44.203125 L 3.3125 0 L 14.136719 0 L 14.136719 -22.550781 C 14.136719 -29.261719 18.703125 -34.898438 25.414062 -34.898438 C 32.394531 -34.898438 36.0625 -29.796875 36.0625 -23.085938 L 36.0625 0 Z M 46.976562 0 "/></g></g></g><g fill="#ffffff" fill-opacity="1"><g transform="translate(577.048426, 281.738934)"><g><path d="M 47.335938 -18.164062 L 12.886719 -18.164062 C 13.601562 -12.707031 18.34375 -8.769531 26.039062 -8.769531 C 30.066406 -8.769531 35.34375 -10.289062 37.851562 -12.886719 L 44.832031 -5.996094 C 40.175781 -1.164062 32.570312 1.164062 25.859375 1.164062 C 10.648438 1.164062 1.609375 -8.230469 1.609375 -22.371094 C 1.609375 -35.792969 10.738281 -45.457031 25.054688 -45.457031 C 39.820312 -45.457031 49.035156 -36.328125 47.335938 -18.164062 Z M 13.0625 -27.203125 L 36.867188 -27.203125 C 36.152344 -32.929688 31.675781 -35.792969 25.414062 -35.792969 C 19.507812 -35.792969 14.675781 -32.929688 13.0625 -27.203125 Z M 37.941406 -63.980469 L 25.054688 -63.980469 L 18.433594 -51.808594 L 18.433594 -51.273438 L 28.097656 -51.273438 L 37.941406 -63.53125 Z M 37.941406 -63.980469 "/></g></g></g></svg>